<mxfile host="app.diagrams.net" modified="2024-03-19T05:16:28.415Z" agent="Mozilla/5.0 (Macintosh; Intel Mac OS X 10_15_7) AppleWebKit/537.36 (KHTML, like Gecko) Chrome/122.0.0.0 Safari/537.36" etag="vUhZRrqworkyMzXmX4Tc" version="23.1.7" type="github">
  <diagram name="Page-1" id="K-2ljFw_KftCXxwvLzc5">
    <mxGraphModel dx="954" dy="526" grid="1" gridSize="10" guides="1" tooltips="1" connect="1" arrows="1" fold="1" page="1" pageScale="1" pageWidth="827" pageHeight="1169" math="0" shadow="0">
      <root>
        <mxCell id="0" />
        <mxCell id="1" parent="0" />
        <mxCell id="6Bn-gtelsYhOVVR3qreI-12" value="" style="rounded=0;whiteSpace=wrap;html=1;fillColor=none;" vertex="1" parent="1">
          <mxGeometry x="490" y="40" width="390" height="100" as="geometry" />
        </mxCell>
        <mxCell id="6Bn-gtelsYhOVVR3qreI-3" value="" style="edgeStyle=orthogonalEdgeStyle;rounded=0;orthogonalLoop=1;jettySize=auto;html=1;" edge="1" parent="1" source="6Bn-gtelsYhOVVR3qreI-1" target="6Bn-gtelsYhOVVR3qreI-2">
          <mxGeometry relative="1" as="geometry" />
        </mxCell>
        <mxCell id="6Bn-gtelsYhOVVR3qreI-1" value="Co-Worker" style="rounded=1;whiteSpace=wrap;html=1;" vertex="1" parent="1">
          <mxGeometry x="290" y="40" width="120" height="60" as="geometry" />
        </mxCell>
        <mxCell id="6Bn-gtelsYhOVVR3qreI-5" value="" style="edgeStyle=orthogonalEdgeStyle;rounded=0;orthogonalLoop=1;jettySize=auto;html=1;" edge="1" parent="1" source="6Bn-gtelsYhOVVR3qreI-2" target="6Bn-gtelsYhOVVR3qreI-4">
          <mxGeometry relative="1" as="geometry" />
        </mxCell>
        <mxCell id="6Bn-gtelsYhOVVR3qreI-6" style="edgeStyle=orthogonalEdgeStyle;rounded=0;orthogonalLoop=1;jettySize=auto;html=1;" edge="1" parent="1" source="6Bn-gtelsYhOVVR3qreI-2">
          <mxGeometry relative="1" as="geometry">
            <mxPoint x="200" y="260" as="targetPoint" />
          </mxGeometry>
        </mxCell>
        <mxCell id="6Bn-gtelsYhOVVR3qreI-13" style="edgeStyle=orthogonalEdgeStyle;rounded=0;orthogonalLoop=1;jettySize=auto;html=1;entryX=0;entryY=0.5;entryDx=0;entryDy=0;" edge="1" parent="1" source="6Bn-gtelsYhOVVR3qreI-2" target="6Bn-gtelsYhOVVR3qreI-12">
          <mxGeometry relative="1" as="geometry" />
        </mxCell>
        <mxCell id="6Bn-gtelsYhOVVR3qreI-17" style="edgeStyle=orthogonalEdgeStyle;rounded=0;orthogonalLoop=1;jettySize=auto;html=1;entryX=0;entryY=0.5;entryDx=0;entryDy=0;" edge="1" parent="1" source="6Bn-gtelsYhOVVR3qreI-2" target="6Bn-gtelsYhOVVR3qreI-14">
          <mxGeometry relative="1" as="geometry" />
        </mxCell>
        <mxCell id="6Bn-gtelsYhOVVR3qreI-22" style="edgeStyle=orthogonalEdgeStyle;rounded=0;orthogonalLoop=1;jettySize=auto;html=1;" edge="1" parent="1">
          <mxGeometry relative="1" as="geometry">
            <mxPoint x="280" y="415" as="targetPoint" />
            <mxPoint x="350" y="245" as="sourcePoint" />
            <Array as="points">
              <mxPoint x="350" y="325" />
              <mxPoint x="280" y="325" />
            </Array>
          </mxGeometry>
        </mxCell>
        <mxCell id="6Bn-gtelsYhOVVR3qreI-25" style="edgeStyle=orthogonalEdgeStyle;rounded=0;orthogonalLoop=1;jettySize=auto;html=1;entryX=0.5;entryY=0;entryDx=0;entryDy=0;" edge="1" parent="1" source="6Bn-gtelsYhOVVR3qreI-2" target="6Bn-gtelsYhOVVR3qreI-24">
          <mxGeometry relative="1" as="geometry" />
        </mxCell>
        <mxCell id="6Bn-gtelsYhOVVR3qreI-26" style="edgeStyle=orthogonalEdgeStyle;rounded=0;orthogonalLoop=1;jettySize=auto;html=1;entryX=0;entryY=0.5;entryDx=0;entryDy=0;" edge="1" parent="1" source="6Bn-gtelsYhOVVR3qreI-2" target="6Bn-gtelsYhOVVR3qreI-18">
          <mxGeometry relative="1" as="geometry" />
        </mxCell>
        <mxCell id="6Bn-gtelsYhOVVR3qreI-27" style="edgeStyle=orthogonalEdgeStyle;rounded=0;orthogonalLoop=1;jettySize=auto;html=1;entryX=0;entryY=0.5;entryDx=0;entryDy=0;" edge="1" parent="1" source="6Bn-gtelsYhOVVR3qreI-2" target="6Bn-gtelsYhOVVR3qreI-19">
          <mxGeometry relative="1" as="geometry" />
        </mxCell>
        <mxCell id="6Bn-gtelsYhOVVR3qreI-2" value="Isell client" style="rounded=1;whiteSpace=wrap;html=1;" vertex="1" parent="1">
          <mxGeometry x="290" y="180" width="120" height="60" as="geometry" />
        </mxCell>
        <mxCell id="6Bn-gtelsYhOVVR3qreI-4" value="SÃ¤lja Pro" style="rounded=1;whiteSpace=wrap;html=1;" vertex="1" parent="1">
          <mxGeometry x="20" y="260" width="120" height="60" as="geometry" />
        </mxCell>
        <mxCell id="6Bn-gtelsYhOVVR3qreI-7" value="Iserve" style="rounded=1;whiteSpace=wrap;html=1;" vertex="1" parent="1">
          <mxGeometry x="150" y="260" width="120" height="60" as="geometry" />
        </mxCell>
        <mxCell id="6Bn-gtelsYhOVVR3qreI-11" value="" style="edgeStyle=orthogonalEdgeStyle;rounded=0;orthogonalLoop=1;jettySize=auto;html=1;" edge="1" parent="1" source="6Bn-gtelsYhOVVR3qreI-8" target="6Bn-gtelsYhOVVR3qreI-10">
          <mxGeometry relative="1" as="geometry" />
        </mxCell>
        <mxCell id="6Bn-gtelsYhOVVR3qreI-8" value="Centiro" style="rounded=1;whiteSpace=wrap;html=1;" vertex="1" parent="1">
          <mxGeometry x="530" y="60" width="120" height="60" as="geometry" />
        </mxCell>
        <mxCell id="6Bn-gtelsYhOVVR3qreI-10" value="ISOM" style="rounded=1;whiteSpace=wrap;html=1;" vertex="1" parent="1">
          <mxGeometry x="710" y="60" width="120" height="60" as="geometry" />
        </mxCell>
        <mxCell id="6Bn-gtelsYhOVVR3qreI-14" value="" style="rounded=0;whiteSpace=wrap;html=1;fillColor=none;" vertex="1" parent="1">
          <mxGeometry x="490" y="160" width="390" height="160" as="geometry" />
        </mxCell>
        <mxCell id="6Bn-gtelsYhOVVR3qreI-15" value="ATP" style="rounded=1;whiteSpace=wrap;html=1;" vertex="1" parent="1">
          <mxGeometry x="530" y="170" width="120" height="60" as="geometry" />
        </mxCell>
        <mxCell id="6Bn-gtelsYhOVVR3qreI-16" value="MHS" style="rounded=1;whiteSpace=wrap;html=1;" vertex="1" parent="1">
          <mxGeometry x="530" y="250" width="120" height="60" as="geometry" />
        </mxCell>
        <mxCell id="6Bn-gtelsYhOVVR3qreI-18" value="CTM" style="rounded=1;whiteSpace=wrap;html=1;" vertex="1" parent="1">
          <mxGeometry x="530" y="340" width="120" height="60" as="geometry" />
        </mxCell>
        <mxCell id="6Bn-gtelsYhOVVR3qreI-19" value="OM" style="rounded=1;whiteSpace=wrap;html=1;" vertex="1" parent="1">
          <mxGeometry x="540" y="420" width="120" height="60" as="geometry" />
        </mxCell>
        <mxCell id="6Bn-gtelsYhOVVR3qreI-20" value="SIM" style="rounded=1;whiteSpace=wrap;html=1;" vertex="1" parent="1">
          <mxGeometry x="660" y="170" width="120" height="60" as="geometry" />
        </mxCell>
        <mxCell id="6Bn-gtelsYhOVVR3qreI-21" value="Selling Range" style="rounded=1;whiteSpace=wrap;html=1;" vertex="1" parent="1">
          <mxGeometry x="790" y="170" width="80" height="60" as="geometry" />
        </mxCell>
        <mxCell id="6Bn-gtelsYhOVVR3qreI-23" value="SAPI" style="rounded=1;whiteSpace=wrap;html=1;" vertex="1" parent="1">
          <mxGeometry x="220" y="410" width="120" height="60" as="geometry" />
        </mxCell>
        <mxCell id="6Bn-gtelsYhOVVR3qreI-24" value="EBC" style="rounded=1;whiteSpace=wrap;html=1;" vertex="1" parent="1">
          <mxGeometry x="346" y="410" width="120" height="60" as="geometry" />
        </mxCell>
      </root>
    </mxGraphModel>
  </diagram>
</mxfile>
